<svg width="32" height="32" viewBox="0 0 32 32" fill="none" xmlns="http://www.w3.org/2000/svg">
  <path d="M26 9C26 11.4853 21.5228 13.5 16 13.5C10.4772 13.5 6 11.4853 6 9C6 6.51472 10.4772 4.5 16 4.5C21.5228 4.5 26 6.51472 26 9Z" fill="#4F46E5"/>
  <path d="M26 9V14C26 16.4853 21.5228 18.5 16 18.5C10.4772 18.5 6 16.4853 6 14V9" fill="#4F46E5" fill-opacity="0.8"/>
  <path d="M26 14V19C26 21.4853 21.5228 23.5 16 23.5C10.4772 23.5 6 21.4853 6 19V14" fill="#4F46E5" fill-opacity="0.6"/>
  <path d="M26 19V24C26 26.4853 21.5228 28.5 16 28.5C10.4772 28.5 6 26.4853 6 24V19" fill="#4F46E5" fill-opacity="0.4"/>
</svg>
